<?xml version="1.0" encoding="UTF-8"?>
<svg width="700pt" height="700pt" version="1.1" viewBox="0 0 700 700" xmlns="http://www.w3.org/2000/svg">
 <path d="m346.1 25.637c-10.961 0.375-21.797 2.4453-32.121 6.1367-1.6914 0.61328-3.3398 1.3359-4.9336 2.1719-10.008 5.2109-18.316 13.172-23.945 22.949-2.1797 3.793-6.8242 5.3906-10.875 3.7461-3.4648-1.4023-7.1289-2.25-10.855-2.5078-8.8203-0.60547-17.398 3.0312-23.094 9.793-12.734 15.125-17.227 35.535-12.023 54.609-16.539-10.848-37.348-12.875-55.668-5.4297-8.1758 3.332-14.277 10.355-16.426 18.918-0.92578 3.6328-1.2695 7.3867-1.0195 11.121 0.30469 4.3594-2.6562 8.2734-6.9297 9.1719-12.07 2.5664-23.035 8.8398-31.363 17.945-15.926 19.711-24.27 44.477-23.512 69.805 0.066407 1.8047 0.25391 3.6055 0.56641 5.3828 1.8711 11.129 6.8828 21.492 14.449 29.863 2.9922 3.1758 3.1875 8.0742 0.45312 11.477-2.4062 2.8672-4.3438 6.0977-5.7383 9.5703-3.3047 8.1875-2.5078 17.461 2.1445 24.965 10.438 16.789 28.457 27.383 48.203 28.336-15.406 12.387-23.75 31.547-22.32 51.262 0.625 8.8086 5.4102 16.789 12.887 21.488 3.168 1.9883 6.6328 3.4609 10.262 4.3672 4.2266 1.0547 7.0312 5.0586 6.582 9.3906-1.2969 12.293 1.2891 24.68 7.3945 35.426 13.82 21.234 34.789 36.816 59.105 43.93 1.7344 0.51172 3.5078 0.90234 5.2969 1.1719 11.152 1.6641 22.551 0.10156 32.848-4.4961 3.9844-1.7852 8.6758-0.35547 10.992 3.3477 1.9766 3.1719 4.4453 6.0156 7.3125 8.418 6.7773 5.6719 15.855 7.7695 24.434 5.6484 19.188-4.75 34.82-18.621 41.82-37.109 7.0078 18.496 22.652 32.367 41.852 37.109 8.5742 2.1133 17.641 0.015625 24.41-5.6484 2.875-2.4023 5.3516-5.2422 7.3398-8.418 2.3125-3.6953 6.9961-5.125 10.98-3.3477 11.277 5.0352 23.852 6.4141 35.953 3.9414 24.469-6.5938 45.766-21.727 60.035-42.668 1.0195-1.4844 1.9375-3.0391 2.7461-4.6523 5.0469-10.098 7.1016-21.426 5.9219-32.652-0.44922-4.332 2.3516-8.3359 6.5781-9.3945 3.625-0.90625 7.0859-2.3789 10.254-4.3633 7.4844-4.6953 12.285-12.676 12.918-21.488 1.4258-19.719-6.9219-38.883-22.332-51.266 19.738-0.96094 37.746-11.551 48.184-28.332 4.6562-7.5039 5.457-16.777 2.1523-24.969-1.3945-3.4727-3.332-6.7031-5.7383-9.5703-2.7305-3.4023-2.5391-8.2969 0.45312-11.473 8.2734-9.1758 13.465-20.711 14.848-32.988 1.3008-25.309-6.5039-50.242-22.004-70.293-1.1016-1.4297-2.3008-2.7852-3.5859-4.0508-8.043-7.8984-18.176-13.332-29.207-15.664-4.2734-0.89844-7.2305-4.8125-6.9297-9.1719 0.25-3.7344-0.09375-7.4883-1.0195-11.121-2.1445-8.5586-8.2422-15.586-16.414-18.918-18.32-7.4453-39.129-5.418-55.668 5.4297 5.2031-19.074 0.70312-39.488-12.035-54.609-5.6914-6.7578-14.266-10.395-23.082-9.793-3.7266 0.25781-7.3906 1.1055-10.855 2.5039-4.043 1.6328-8.6758 0.039062-10.852-3.7422h-0.45312c-6.1641-10.703-15.52-19.207-26.758-24.324-13.254-5.0703-27.391-7.4258-41.57-6.9336zm0.22656 6.8008v0.003906c13.277-0.48828 26.512 1.6953 38.93 6.4219 9.8555 4.5352 18.059 12.023 23.477 21.422 1.8711 3.2539 4.8555 5.7188 8.4023 6.9414 3.543 1.2266 7.4141 1.1289 10.891-0.27344 2.8125-1.1328 5.7812-1.8125 8.8047-2.0156 6.6445-0.45312 13.113 2.2852 17.41 7.3789 7.6602 9.0898 12.066 20.477 12.523 32.355s-3.0664 23.566-10.008 33.219c-0.78125-0.042969-1.5625-0.070313-2.3477-0.089844v0.023438 0.023437 0.023438 0.023437 0.019531-0.019531-0.023437-0.023438-0.023437-0.023438-0.019531-0.023438-0.023437-0.023437-0.023438c-0.003906-0.027344-0.003906-0.058594 0-0.085938v-0.023437-0.023437-0.023438-0.023438-0.019531h0.34375c1.2383-4.9805 0.60938-10.238-1.7617-14.785-2.375-4.5469-6.332-8.0664-11.125-9.8945-8.3242-3.6992-17.598-4.707-26.523-2.8789-8.9258 1.8281-17.059 6.3945-23.258 13.07-4.6445-4.1875-9.7695-7.8086-15.27-10.789-1.6875-0.91406-3.4648-1.6484-5.3086-2.1914-13.672-4.0586-28.227-4.0586-41.898 0-1.8398 0.54297-3.6172 1.2773-5.3086 2.1914-5.4961 2.9805-10.621 6.6016-15.266 10.789-6.1992-6.668-14.328-11.234-23.25-13.062-8.918-1.8281-18.188-0.82422-26.512 2.8711-4.7969 1.8203-8.7617 5.3398-11.141 9.8867-2.3828 4.5469-3.0156 9.8086-1.7773 14.793v0.019531 0.023438c0.003907 0.03125 0.003907 0.058594 0 0.089844v0.023437 0.019531 0.023438 0.023438 0.023437 0.023437 0.019532 0.023437 0.023438 0.023437 0.023438 0.019531 0.023437-0.023437-0.019531-0.023438-0.023437-0.023438c-0.78906 0.019531-1.582 0.046875-2.3711 0.089844-6.9336-9.6562-10.449-21.348-9.9883-33.227 0.46094-11.879 4.875-23.262 12.543-32.348 4.2852-5.0977 10.742-7.8438 17.387-7.3984 3.0234 0.20703 5.9922 0.89453 8.8008 2.0352 3.4805 1.4023 7.3477 1.5 10.895 0.27344 3.5469-1.2227 6.5273-3.6914 8.3984-6.9414 4.9883-8.6445 12.344-15.688 21.199-20.293 1.3242-0.6875 2.6914-1.2891 4.0977-1.793 9.582-3.4375 19.641-5.3828 29.816-5.7617zm4.2539 81.371c6.1719 0.070312 12.301 0.99609 18.215 2.7461 1.3984 0.42187 2.75 0.98437 4.0273 1.6875 10.969 5.9453 20.211 14.629 26.824 25.207 1.1406 1.8125 3.0352 3.0078 5.1602 3.2539 2.125 0.24219 4.2422-0.48828 5.7656-1.9922 5.1367-5.0977 13.293-5.5078 18.918-0.95313 7.2383 5.0547 12.426 12.527 14.625 21.074s1.2617 17.598-2.6367 25.516c-13.266 24.062-27.922 47.332-43.883 69.695-1.4258-1.3164-2.7305-2.7539-3.9023-4.3008-12.387-16.316-23.246-33.734-32.449-52.035-4.4727-8.8984-12.113-15.797-21.418-19.344-9.3008-3.5469-19.594-3.4805-28.855 0.17969-14.562 5.7656-28.074 13.887-40.004 24.035-0.53125 0.49609-1.0508 1.0039-1.5547 1.5312-3.8789-6.5273-7.6523-13.113-11.32-19.762-3.8984-7.9141-4.8359-16.965-2.6367-25.512 2.1953-8.5469 7.3828-16.023 14.617-21.074 5.6289-4.5742 13.801-4.1641 18.941 0.94922 1.5195 1.5039 3.6406 2.2383 5.7617 1.9922 2.125-0.24609 4.0234-1.4414 5.1602-3.25 6.6133-10.582 15.855-19.266 26.824-25.211 1.2852-0.70313 2.6367-1.2656 4.0391-1.6875 6.418-1.8984 13.086-2.8242 19.781-2.7461zm-75.191 2.082h0.003906c10.613-0.23828 20.816 4.1016 28.004 11.918-3.5117 3.7852-6.6406 7.9023-9.3477 12.297-3.625-3.7188-8.5-5.957-13.68-6.2891-5.1797-0.33203-10.301 1.2695-14.371 4.4922-8.5234 6.0234-14.613 14.898-17.164 25.02s-1.3984 20.82 3.2461 30.164c4.1641 7.5586 8.4648 15.039 12.898 22.441-3.5039 5.7656-5.2773 12.41-5.1172 19.152 0.16016 6.7422 2.25 13.297 6.0234 18.887-16.094-0.76562-32.207-0.98828-48.316-0.66797-13.352 0.82422-25.594 7.7109-33.223 18.699-2.8594-4.8828-4.5586-10.355-4.9688-15.996-1.0234-7.1758 3.5234-13.965 10.547-15.75 2.0703-0.53906 3.7812-1.9883 4.6523-3.9414 0.875-1.9492 0.81641-4.1914-0.16016-6.0938-5.7031-11.102-8.4336-23.488-7.9297-35.957 0.078125-1.457 0.30469-2.9062 0.68359-4.3203 3.1953-12.531 9.9609-23.867 19.473-32.633 1.0781-0.98438 2.2578-1.8516 3.5156-2.5898 10.727-6.3672 22.914-9.8477 35.379-10.105 2.1445-0.042969 4.1484-1.0625 5.4531-2.7617 1.3008-1.7031 1.7578-3.9062 1.2383-5.9883-1.7383-7.0234 2.0898-14.23 8.8828-16.723 4.5039-2.0352 9.3711-3.1445 14.312-3.2617zm146.96 0h0.003907c0.60938-0.015625 1.2227-0.015625 1.8359 0 4.9336 0.12109 9.793 1.2266 14.293 3.2578 6.793 2.4922 10.621 9.6992 8.8789 16.727v-0.023438c-0.51562 2.0781-0.0625 4.2812 1.2422 5.9844 1.3008 1.7031 3.3086 2.7227 5.4492 2.7656 12.469 0.25781 24.656 3.7383 35.379 10.102 1.2617 0.73828 2.4453 1.6094 3.5273 2.5938 9.5156 8.7695 16.281 20.113 19.477 32.652 0.375 1.4062 0.60156 2.8477 0.67969 4.3008 0.51562 12.465-2.2109 24.855-7.9062 35.953-0.97656 1.9023-1.0352 4.1445-0.16016 6.0977 0.87109 1.9492 2.582 3.3984 4.6523 3.9375 7.0312 1.7852 11.586 8.5938 10.547 15.773-0.40625 5.6328-2.1055 11.098-4.957 15.973-7.6328-10.988-19.879-17.875-33.23-18.695-24.344-0.48828-48.691 0.26563-72.957 2.2578 13.867-20.02 26.703-40.73 38.461-62.051 4.6484-9.3516 5.7969-20.051 3.2383-30.172-2.5547-10.121-8.6484-18.996-17.176-25.016-4.0234-3.1836-9.0742-4.7812-14.195-4.4961s-9.9609 2.4375-13.605 6.0508v0.023438 0.019531 0.023438 0.023437 0.023437 0.023438-0.023438-0.023437-0.023437-0.023438-0.019531-0.023438-0.023437c-2.6797-4.2969-5.7617-8.3242-9.2109-12.031 6.7578-7.3477 16.199-11.645 26.18-11.918zm-226.41 3.6133v-0.003906c14.172 0.19922 27.684 6.0273 37.555 16.195 0.55469 1.0078 1.1367 1.9961 1.7461 2.9688-10.133 1.5117-19.875 4.9805-28.684 10.211-1.6641 0.98047-3.2227 2.1328-4.6484 3.4336-10.473 9.6602-17.914 22.152-21.43 35.957-0.5 1.8672-0.80469 3.7852-0.90625 5.7148-0.5625 13.645 2.4219 27.199 8.6562 39.344v0.023437 0.023438 0.023437 0.019531 0.023438 0.023438 0.023437 0.023437 0.023438 0.019531 0.023438 0.023437 0.023438 0.023437 0.019531c-4.9727 1.2773-9.3086 4.3281-12.18 8.582-2.875 4.2539-4.0898 9.4141-3.418 14.504 0.61328 7.8867 3.3516 15.457 7.9297 21.91-2.0898 4.5078-3.3945 9.3398-3.8555 14.289-0.75391 5.125 0.41797 10.352 3.2891 14.668 2.8711 4.3125 7.2383 7.4141 12.258 8.7031-4.1016 7.6523-6.9141 15.934-8.3242 24.5-6.4883 0.74609-12.812 2.5391-18.727 5.3164-10.477 1.8203-21.254 0.47266-30.961-3.8711-9.7031-4.3477-17.887-11.492-23.504-20.52-3.5312-5.6562-4.1523-12.66-1.668-18.852 1.1211-2.7969 2.6758-5.3984 4.6055-7.7109 2.4023-2.8828 3.6797-6.543 3.5938-10.297-0.082032-3.7539-1.5195-7.3516-4.0469-10.125-6.6875-7.4141-11.113-16.586-12.762-26.43-0.25391-1.4805-0.40625-2.9766-0.45312-4.4766-0.70312-23.629 7.0508-46.734 21.867-65.152 7.3594-7.9805 17.02-13.477 27.641-15.73 3.6758-0.76953 6.9492-2.8477 9.2148-5.8438 2.2617-2.9961 3.3672-6.7109 3.1055-10.461-0.21094-3.0117 0.058594-6.0391 0.79297-8.9727 1.625-6.457 6.2266-11.758 12.398-14.266 6.6172-2.6875 13.707-4.0195 20.848-3.918zm307.69 0v-0.003906c7.1367-0.097656 14.215 1.2344 20.828 3.9219 6.1719 2.5039 10.781 7.8047 12.406 14.266 0.73437 2.9297 1.0039 5.957 0.79297 8.9727-0.26172 3.7422 0.83984 7.457 3.0977 10.453 2.2617 2.9961 5.5273 5.0742 9.1992 5.8516 9.7578 2.0781 18.715 6.8945 25.828 13.891 1.0781 1.0469 2.0859 2.1641 3.0156 3.3477 14.453 18.707 21.754 41.961 20.586 65.574-1.2617 10.785-5.8477 20.91-13.121 28.977-2.5312 2.7734-3.9688 6.3711-4.0508 10.125-0.085938 3.7539 1.1914 7.4141 3.5977 10.301 1.9297 2.3086 3.4844 4.9102 4.6016 7.707 2.4883 6.1875 1.875 13.191-1.6562 18.852-5.6172 9.0312-13.805 16.176-23.512 20.523-9.7031 4.3438-20.488 5.6914-30.965 3.8672h0.11328c-5.9062-2.7812-12.227-4.5859-18.715-5.3359-1.3984-8.4648-4.168-16.641-8.1992-24.215v-0.023437-0.023438-0.019531-0.023438-0.023437-0.023438-0.023437-0.019531-0.023438-0.023438-0.023437-0.023437-0.023438-0.019531-0.023438c4.9531-1.3477 9.2461-4.4609 12.059-8.7539 2.8125-4.2969 3.9531-9.4727 3.207-14.551-0.46484-4.9492-1.7656-9.7812-3.8555-14.289 4.5781-6.4609 7.3203-14.039 7.9297-21.934 0.66797-5.082-0.54687-10.234-3.4141-14.48-2.8711-4.25-7.1953-7.3008-12.16-8.582v-0.019532-0.023437-0.023438-0.023437-0.023438-0.019531-0.023437-0.023438-0.023438-0.023437-0.023437-0.019532-0.023437-0.023438-0.023437c6.2305-12.148 9.207-25.703 8.6445-39.344-0.10547-1.9297-0.40625-3.8477-0.91016-5.7148-3.5117-13.805-10.953-26.297-21.426-35.957-1.4258-1.3008-2.9844-2.4531-4.6484-3.4336-8.8125-5.2305-18.559-8.6992-28.699-10.211 0.61719-0.97266 1.2031-1.9648 1.7578-2.9688 9.875-10.172 23.395-16 37.566-16.195zm-177.84 69.074 0.003906-0.003906c6.0898 0.035156 12.055 1.75 17.234 4.9609 5.1758 3.207 9.3672 7.7852 12.105 13.227 9.3945 18.68 20.48 36.453 33.121 53.102 8.457 11.145 22.141 17.039 36.047 15.531 7.8906-0.85156 15.691 2.2695 20.816 8.3281 5.125 6.0625 6.9023 14.273 4.75 21.91-1.2266 8.4219-4.5547 16.398-9.6758 23.195-2.3164 3.0703-5.4375 5.4414-9.0156 6.8516-3.5781 1.4102-7.4766 1.8086-11.266 1.1445-4.5195-0.78125-9.168-0.29688-13.43 1.4023-4.2617 1.6953-7.9727 4.5391-10.719 8.2148l-56.711-74.016c-6.2539-8.1641-14.867-14.207-24.672-17.309-9.8008-3.1055-20.324-3.1172-30.137-0.039063-3.0586-0.22656-6.1211-0.43359-9.1875-0.62109-5.4492-5.418-8.4805-12.812-8.3945-20.496 0.085938-7.6875 3.2773-15.012 8.8477-20.309 11.34-9.6172 24.176-17.309 38-22.773 3.9219-1.5469 8.1016-2.332 12.316-2.3086zm-25.816 71.023 0.003907-0.003906c13.219 0.22656 25.613 6.4766 33.652 16.973l58.574 76.496v-0.003906c-0.45312 1.3086-0.79297 2.6484-1.0234 4.0117-1.6406 5.5898-5.4922 10.273-10.66 12.973-5.1719 2.6953-11.215 3.168-16.742 1.3125-7.2695-14.422-14.043-29.09-20.316-43.973-1.0234-2.4258-3.3555-4.0391-5.9844-4.1484-2.6289-0.10938-5.0859 1.3086-6.3086 3.6406-5.1914 9.8945-14.547 16.945-25.488 19.211-10.945 2.2656-22.328-0.49219-31.02-7.5117-10.051-6.9297-16.711-17.781-18.344-29.879-1.6328-12.098 1.918-24.324 9.7734-33.668 7.8594-9.3438 19.293-14.938 31.492-15.41 0.79687-0.027344 1.5977-0.035156 2.3945-0.023438zm174.95 0.39844 0.003906-0.003906c2.2773 0.035156 4.5547 0.078125 6.8281 0.13281 8.8008 0.58594 17.098 4.2969 23.395 10.473 6.2969 6.1719 10.18 14.395 10.941 23.176 1.1328 7.1484-3.2969 14.004-10.277 15.906-2.0742 0.55859-3.7812 2.0352-4.6367 4.0039-0.85547 1.9727-0.76562 4.2266 0.24609 6.1211 5.8594 11.012 8.7656 23.355 8.4414 35.824-0.039062 1.4531-0.23047 2.9023-0.57031 4.3203-3.0156 12.582-9.6172 24.02-19.008 32.918-1.0547 0.99609-2.2109 1.8828-3.4492 2.6367-10.645 6.5273-22.797 10.184-35.273 10.613-2.1367 0.085937-4.1172 1.1367-5.3867 2.8516-1.2695 1.7188-1.6914 3.9219-1.1484 5.9883 1.8438 7.0039-1.8867 14.273-8.6523 16.859-7.9922 3.7344-17.059 4.4844-25.555 2.1172-8.4961-2.3711-15.863-7.7031-20.77-15.035-7.8594-13.004-15.301-26.258-22.312-39.742 6.6367 0.67188 13.297-1.0234 18.805-4.793 5.5039-3.7656 9.5-9.3594 11.277-15.789 0.73828-4.7852 3.3672-9.0781 7.3008-11.906s8.8398-3.957 13.613-3.1328c5.0156 0.86719 10.168 0.33594 14.898-1.5312 4.7344-1.8672 8.8594-5 11.93-9.0586 5.7461-7.582 9.5234-16.473 10.988-25.875 2.6016-9.7812 0.21875-20.215-6.375-27.895-6.5938-7.6797-16.547-11.613-26.609-10.52-7.1641 0.77344-14.383-0.8125-20.562-4.5195 0.30078-0.42969 0.60547-0.85547 0.90625-1.2852 23.598-2.125 47.289-3.0742 70.98-2.832zm-257.14 0.13281 0.007813-0.003906c17.941-0.35547 35.891-0.03125 53.809 0.97266-13.867 9.1602-22.297 24.594-22.5 41.215-0.20703 16.617 7.8398 32.254 21.477 41.75 10.297 8.2148 23.727 11.398 36.613 8.6836 12.887-2.7109 23.891-11.039 30.004-22.707 2.8438 6.75 5.793 13.457 8.8477 20.117-10.914 23.562-23.109 46.512-36.535 68.742-4.9062 7.332-12.273 12.664-20.77 15.031-8.5 2.3711-17.562 1.6211-25.555-2.1172-6.7617-2.5898-10.488-9.8555-8.6406-16.859 0.54297-2.0703 0.11719-4.2734-1.1562-5.9922-1.2734-1.7188-3.2617-2.7656-5.4023-2.8477-12.465-0.43359-24.605-4.0898-35.238-10.609-1.25-0.75391-2.418-1.6406-3.4844-2.6367-9.3906-8.9023-15.992-20.34-19.008-32.922-0.33984-1.4141-0.53125-2.8633-0.57031-4.3203-0.32422-12.469 2.582-24.809 8.4414-35.82 1.0117-1.8984 1.1016-4.1523 0.24609-6.1211-0.85547-1.9727-2.5625-3.4453-4.6367-4.0039-6.9727-1.9141-11.391-8.7656-10.254-15.906 0.76172-8.7812 4.6367-17 10.93-23.172 6.293-6.1719 14.586-9.8906 23.383-10.48zm-34.676 87.66 0.007813-0.003907c-0.28516 2.6641-0.4375 5.3398-0.45313 8.0195 0.0625 1.9336 0.32813 3.8594 0.79297 5.7383 3.3203 13.859 10.59 26.457 20.93 36.266 1.4023 1.3242 2.9414 2.4961 4.5898 3.5 11.637 7.1445 24.922 11.148 38.566 11.633v-0.023437-0.023437-0.023438-0.023438-0.019531 0.019531 0.023438 0.023438 0.023437 0.023437 0.019532 0.023437 0.023438 0.023437 0.023438 0.019531 0.023437 0.023438 0.023438 0.023437 0.019531 0.023438 0.023437c-1.3086 4.9609-0.75391 10.227 1.5586 14.809 2.3086 4.5781 6.2188 8.1523 10.984 10.047 7.5898 3.5 16.02 4.75 24.293 3.6094 8.2773-1.1406 16.051-4.6328 22.406-10.055 4.918 4.5938 10.402 8.5391 16.32 11.742 1.6875 0.91797 3.4609 1.6602 5.2969 2.2109 5.7188 1.6914 11.617 2.6797 17.57 2.9453v33.984c-1.4688 10.574-6.0742 20.465-13.223 28.395-7.1484 7.9297-16.508 13.535-26.871 16.09-6.4727 1.6016-13.32 0.019531-18.434-4.2539-2.3203-1.9414-4.3164-4.2383-5.9219-6.8047-1.9844-3.168-5.0508-5.5195-8.6289-6.6133-3.582-1.0938-7.4336-0.85938-10.855 0.65625-9.1133 4.0703-19.199 5.4531-29.07 3.9844-1.4844-0.22266-2.9492-0.54688-4.3906-0.97266-22.684-6.6406-42.25-21.156-55.18-40.941-5.3203-9.4648-7.5625-20.348-6.4219-31.145 0.39453-3.7344-0.57422-7.4805-2.7305-10.555-2.1523-3.0742-5.3438-5.2656-8.9844-6.1719-2.9258-0.73828-5.7188-1.9375-8.2695-3.5469-5.6523-3.5312-9.2773-9.5469-9.7656-16.191-0.97266-13.445 3.1758-26.762 11.617-37.27 8.4375-10.512 20.539-17.441 33.875-19.398zm333.32 0 0.007812-0.003907c13.336 1.9531 25.441 8.8828 33.883 19.395 8.4414 10.512 12.594 23.828 11.621 37.273-0.48437 6.6445-4.1055 12.66-9.7539 16.195-2.5586 1.6016-5.3516 2.793-8.2812 3.5234-3.6367 0.91016-6.8242 3.1016-8.9727 6.1758-2.1484 3.0742-3.1133 6.8203-2.7188 10.551 1.0547 9.9258-0.75391 19.949-5.207 28.887-0.66406 1.3398-1.418 2.6367-2.2578 3.875-13.324 19.535-33.188 33.668-56.008 39.855-10.656 2.1367-21.711 0.90234-31.637-3.5234-3.4258-1.5273-7.2852-1.7656-10.875-0.67188-3.5859 1.0977-6.6562 3.4492-8.6445 6.6289-1.5938 2.5625-3.5781 4.8594-5.8867 6.8008-5.1133 4.2773-11.961 5.8594-18.43 4.2578-10.367-2.5586-19.727-8.1602-26.875-16.09-7.1484-7.9297-11.754-17.82-13.223-28.395v-33.984c5.9492-0.26953 11.848-1.2578 17.559-2.9453 1.8359-0.55469 3.6133-1.2969 5.2969-2.2188 5.9219-3.1992 11.41-7.1484 16.332-11.738h0.22656c6.3555 5.4219 14.129 8.9102 22.406 10.055 8.2773 1.1406 16.707-0.10937 24.293-3.6094 4.8125-1.9141 8.7461-5.543 11.047-10.184 2.2969-4.6445 2.8008-9.9727 1.4062-14.961 13.746-0.42969 27.137-4.4375 38.859-11.629 1.6445-1.0117 3.1836-2.1953 4.582-3.5234 10.352-9.8047 17.633-22.402 20.961-36.266 0.42578-1.8789 0.65234-3.793 0.67969-5.7148-0.015625-2.6797-0.16406-5.3594-0.45312-8.0195zm-166.68 10.434 0.007813-0.003906c10.406 22.008 21.926 43.473 34.516 64.312 0.99609 1.4922 2.082 2.918 3.2539 4.2773-4.4453 4.1328-9.3945 7.6914-14.734 10.59-1.2773 0.69141-2.6289 1.25-4.0234 1.6602-12.402 3.6797-25.602 3.6797-38 0-1.3867-0.41406-2.7305-0.96875-4.0039-1.6602-5.3438-2.8945-10.301-6.4531-14.754-10.59 1.1797-1.3594 2.2734-2.7852 3.2773-4.2773 12.582-20.84 24.094-42.305 34.492-64.312z"/>
</svg>
